<svg xmlns="http://www.w3.org/2000/svg" width="974" height="351.55612" viewBox="0 0 974 351.55612">
  <title>150Insular</title>
  <g id="Layer_2" data-name="Layer 2">
    <g id="Layer_1-2" data-name="Layer 1">
      <g>
        <g>
          <path d="M261.07737,154.81c-.39112-13.05,10.9666-20.3118,27.103-18.72178,16.28786,1.60493,26.487,12.50794,26.62326,25.1484H342.357c.22781-26.63139-23.36589-49.15125-54.17662-50.30657-28.03785-1.05132-53.53125,12.2373-53.53125,43.10414,0,55.20388,89.57451,38.8686,89.11872,75.36077-.22937,18.3622-21.2356,20.88937-35.58747,20.11419-17.25445-.93188-35.40363-10.90226-35.95446-31.68066l-26.60333,6.28815c4.6048,30.06009,27.30383,49.27027,61.81994,51.04442,27.34219,1.40532,63.3417-9.47424,63.3417-46.86278C350.78425,176.723,262.06885,187.89252,261.07737,154.81Z" fill="#141414"/>
          <path d="M779.97161,219.78192,801.31617,271.859h28.19828l-66.003-157.46546H735.31321L670.74821,271.859h28.19853l31.73486-80.076h37.60421l11.6858,27.99893M738.9124,171.97666l10.53044-25.34045,10.57637,25.34045Z" fill="#141414"/>
          <polygon points="556.223 244.968 556.223 114.394 528.257 114.394 528.257 244.968 528.257 271.859 556.223 271.859 649.282 271.859 649.282 244.968 556.223 244.968" fill="#141414"/>
          <path d="M967.10241,155.30063c0-27.32565-18.17907-40.81468-49.51211-40.81468l-68.4655.07288V271.859h28.19828v-79.9413h27.07l41.40861,79.9413H974l-41.938-79.52949C956.98,187.21291,967.10241,176.74416,967.10241,155.30063ZM917.5903,173.9104H877.32308V134.26329l40.26722.088c17.86472,0,28.21142,7.25434,28.21142,19.7796S935.455,173.9104,917.5903,173.9104Z" fill="#141414"/>
          <path d="M434.33952,275.49293c44.40168,0,65.82139-26.31217,65.82139-65.38538V114.647H471.96262l-.0633,88.35478c0,28.2311-11.67621,43.29756-37.5598,43.77768-25.88358-.48012-37.55979-15.54658-37.55979-43.77768l-.06331-88.35478H368.51814v95.4606C368.51814,246.981,392.319,275.49293,434.33952,275.49293Z" fill="#141414"/>
          <rect y="114.56254" width="27.80325" height="157.29649" fill="#141414"/>
          <polygon points="177.518 251.685 92.709 114.487 55.711 114.487 55.711 271.859 83.557 271.859 83.557 141 159.081 271.859 205.321 271.859 205.321 114.487 177.518 114.487 177.518 251.685" fill="#141414"/>
        </g>
        <g>
          <path d="M624.87459,167.94659l-9.70035-8.00946,5.60326-9.99671a12.04385,12.04385,0,0,0,1.26664-8.43l-2.62785-17.3489.59329-13.7644" fill="none" stroke="#000" stroke-linecap="round" stroke-linejoin="round" stroke-width="2.01813"/>
          <polyline points="636.266 170.972 632.469 116.093 638.342 104.405 644.928 99.184" fill="none" stroke="#000" stroke-linecap="round" stroke-linejoin="round" stroke-width="2.01813"/>
          <path d="M648.60632,108.024l11.50989-17.68014s-5.79763-1.82091-7.35684-2.84781a38.78766,38.78766,0,0,1-4.39037-4.39037l-6.8822,19.46Z" fill="#1e1e1e" stroke="#000" stroke-miterlimit="10" stroke-width="0.37342"/>
          <circle cx="623.03892" cy="67.05835" r="1.10866" fill="#1e1e1e"/>
          <path d="M620.82161,61.22031s1.50489-1.62436,2.66077-1.55212c1.77385.11087,4.0466,2.3559,4.0466,2.3559" fill="none" stroke="#000" stroke-linecap="round" stroke-linejoin="round" stroke-width="1.88559"/>
          <path d="M631.68644,85.94335a32.62414,32.62414,0,0,0,5.65415,7.2617" fill="none" stroke="#000" stroke-linecap="round" stroke-linejoin="round" stroke-width="1.88559"/>
          <path d="M642.10781,75.30025s2.54991,8.42579,6.54107,9.75618" fill="none" stroke="#000" stroke-linecap="round" stroke-linejoin="round" stroke-width="1.88559"/>
          <path d="M638.22751,74.30246l2.99338.44346s5.43241-1.99558,4.54549-6.09761-3.65857-3.43683-3.65857-3.43683" fill="none" stroke="#000" stroke-linecap="round" stroke-linejoin="round" stroke-width="1.88559"/>
          <path d="M640.38825,69.10381s1.74265.87132.37343,2.73844" fill="none" stroke="#000" stroke-linecap="round" stroke-linejoin="round" stroke-width="1.88559"/>
          <path d="M632.0831,100.04418s.97894,3.64876,8.72141,2.04687" fill="none" stroke="#000" stroke-linecap="round" stroke-linejoin="round" stroke-width="2.01813"/>
          <polygon points="624.652 107.208 631.727 102.314 636.266 91.367 631.505 86.606 628.775 92.153 624.652 107.208" fill="#1e1e1e" stroke="#000" stroke-miterlimit="10" stroke-width="0.37342"/>
          <path d="M632.57953,88.04612l-3.21177,3.75728L621.02825,97.592a6.90935,6.90935,0,0,0-3.1355,3.6213c-1.98955,5.28952-5.63157,22.11292-7.07921,33.98354" fill="none" stroke="#000" stroke-linecap="round" stroke-linejoin="round" stroke-width="2.11705"/>
          <path d="M619.089,152.98534l-32.95131-9.08672s-8.252,1.50283-14.34745-.71738" fill="none" stroke="#000" stroke-linecap="round" stroke-linejoin="round" stroke-width="2.11705"/>
          <path d="M581.977,129.55117c-2.77384,1.33909-4.20859-2.77384-4.20859-2.77384a7.23033,7.23033,0,0,1,6.822-2.95851c3.36082,1.12027,5.42118,11.47133,5.42118,11.47133l20.20871.61861,2.7485-1.17519a4.35118,4.35118,0,0,1,4.63319,2.149l4.5435,6.383" fill="none" stroke="#000" stroke-linecap="round" stroke-linejoin="round" stroke-width="2.11705"/>
          <circle cx="639.0158" cy="121.33181" r="1.68041" fill="#1e1e1e"/>
          <circle cx="639.99411" cy="134.02763" r="1.68041" fill="#1e1e1e"/>
          <circle cx="641.06379" cy="145.41582" r="1.8737" fill="#1e1e1e"/>
          <circle cx="642.13171" cy="157.34484" r="1.8737" fill="#1e1e1e"/>
          <path d="M697.84965,246.61727s-11.17152-31.86662-9.943-31.641c1.17465.21579,1.67837-1.58329.49642-1.80039-.26941-.04954-.51728-.12454-.76827-.1958l-7.70145-16.23471c-.599-6.18726-2.08823-12.28569-5.56943-13.40855-6.18438-1.99506-8.06751-9.773-8.5309-12.37668,0,0,6.59424-6.89719,6.861-9.89574.40464-4.54847-2.96646-2.37317-2.96646-2.37317s-11.25264,6.01016-18.86673,8.18744c-13.81434,3.95028-26.87618,0-26.87618,0l-.88994,33.10577L567.51449,319.78614l23.5841,8.66353,34.36929-56.08347,27.23819-32.77,27.43343,40.72309,27.042,34.581,21.994-13.1068Z" fill="#1e1e1e"/>
          <path d="M689.731,217.96664c9.183-6.61972,16.13355-17.36431,23.0777-26.1264,7.27363-9.17781,14.17662-19.80324,23.07844-27.51932,1.27809-1.10783-.58425-2.95674-1.85514-1.85514-8.60381,7.45775-15.296,17.69-22.32136,26.56334-4.2158,5.32476-8.43447,10.65218-12.82769,15.83255-3.18482,3.75548-6.44876,7.93641-10.47612,10.83959-1.35715.97833-.04892,3.25519,1.32417,2.26538Z"/>
          <path d="M646.23314,69.25227c9.43337-11.21325,2.93681-22.15951-4.62768-25.304-6.23679-2.59255-11.02411-.73161-13.94239.178-4.56836,1.4239-6.49332,4.292-9.374,9.49269-1.44325,2.60556-3.26311,6.22958-.90426,11.81422l.55433.99779-3.10424,6.87367a4.4062,4.4062,0,0,0,2.63306,1.10866s-.753,5.43478,4.57321,10.754a6.27335,6.27335,0,0,0,6.78059,1.65566c2.56289-.8778,7.52108-2.76431,8.18627-6.86634" fill="none" stroke="#000" stroke-linecap="round" stroke-linejoin="round" stroke-width="1.88559"/>
          <circle cx="635.37588" cy="50.02957" r="1.06793" fill="#1e1e1e"/>
          <circle cx="627.78173" cy="45.28322" r="1.06793" fill="#1e1e1e"/>
          <circle cx="627.78173" cy="45.28322" r="1.06793" fill="#1e1e1e"/>
          <circle cx="622.79806" cy="48.42767" r="1.06793" fill="#1e1e1e"/>
          <circle cx="630.68886" cy="48.0717" r="1.06793" fill="#1e1e1e"/>
          <circle cx="634.6046" cy="45.52054" r="1.06793" fill="#1e1e1e"/>
          <circle cx="644.21595" cy="47.00377" r="1.06793" fill="#1e1e1e"/>
          <circle cx="639.0543" cy="46.35115" r="1.06793" fill="#1e1e1e"/>
          <circle cx="638.55" cy="59.22561" r="1.06793" fill="#1e1e1e"/>
          <circle cx="642.9107" cy="61.48012" r="1.06793" fill="#1e1e1e"/>
          <circle cx="638.75765" cy="63.91263" r="1.06793" fill="#1e1e1e"/>
          <circle cx="640.44854" cy="51.63146" r="1.06793" fill="#1e1e1e"/>
          <circle cx="650.26754" cy="55.01323" r="1.06793" fill="#1e1e1e"/>
          <circle cx="644.15662" cy="51.03816" r="1.06793" fill="#1e1e1e"/>
          <circle cx="647.53839" cy="60.64951" r="1.06793" fill="#1e1e1e"/>
          <circle cx="643.9193" cy="56.19982" r="1.06793" fill="#1e1e1e"/>
          <circle cx="646.64845" cy="66.52312" r="1.06793" fill="#1e1e1e"/>
          <circle cx="638.28302" cy="55.30988" r="1.06793" fill="#1e1e1e"/>
          <circle cx="626.77313" cy="48.36834" r="1.06793" fill="#1e1e1e"/>
          <circle cx="650.08955" cy="58.92896" r="1.06793" fill="#1e1e1e"/>
          <circle cx="647.59772" cy="50.56353" r="1.06793" fill="#1e1e1e"/>
          <g>
            <path d="M703.0113,130.39113c7.63086,9.266,23.71632,20.73244,32.03784,32.92777" fill="#1e1e1e"/>
            <path d="M702.35118,131.05126c9.87014,11.66791,23.02317,20.13794,31.89186,32.73883.68631.97513,2.3059.04326,1.6122-.94237-8.9659-12.739-22.208-21.32385-32.18381-33.11672-.77708-.91861-2.09216.40775-1.32025,1.32026Z"/>
          </g>
          <path d="M657.89136,91.50076c3.20378-2.49183,12.72614,4.62769,12.72614,4.62769s22.561,23.26261,31.68185,31.68186c1.44391,17.48734.14255,25.36358-3.36715,31.81687-1.48387,2.72838-2.86243,7.16249-8.558,13.48106,0,0-9.78934-10.76827-20.58727-13.11178" fill="none" stroke="#000" stroke-linecap="round" stroke-linejoin="round" stroke-width="2.11705"/>
          <path d="M691.97605,133.59491c-5.16165,5.25065-13.17111,4.80568-13.17111,4.80568-5.69561-1.24592-12.54815-11.03525-12.54815-11.03525" fill="none" stroke="#000" stroke-linecap="round" stroke-linejoin="round" stroke-width="2.11705"/>
          <line x1="671.27012" y1="159.64049" x2="678.35997" y2="138.66757" fill="none" stroke="#000" stroke-linecap="round" stroke-linejoin="round" stroke-width="2.11705"/>
          <path d="M678.182,139.64651s2.31385-2.84781,10.50129.089" fill="none" stroke="#000" stroke-linecap="round" stroke-linejoin="round" stroke-width="2.11705"/>
          <path d="M675.42317,186.10136s1.5129-8.45442,11.8362-15.92992" fill="none" stroke="#000" stroke-linecap="round" stroke-linejoin="round" stroke-width="2.11705"/>
          <g>
            <g>
              <path d="M540.45848,332.73117s-1.25422.72068-.41087,1.40376c2.13909,1.73257,6.34307,1.9777,8.49006,2.4513a3.677,3.677,0,0,1,1.6815.86969,11.23751,11.23751,0,0,1,2.8,4.02031" fill="none" stroke="#000" stroke-linecap="round" stroke-linejoin="round" stroke-width="2.11705"/>
              <path d="M548.40393,336.15445s8.09319.50357,10.71276-.3826c2.087-.706,8.8052-5.79721,8.8052-5.79721" fill="none" stroke="#000" stroke-linecap="round" stroke-linejoin="round" stroke-width="2.11705"/>
              <path d="M534.81324,333.50185l-1.96216,1.64321,1.27043,2.70924a22.849,22.849,0,0,0,8.83039,5.18693c5.18358,1.50864,31.17736,7.45637,31.17736,7.45637s2.9741-.15693,3.11225-4.43168" fill="none" stroke="#000" stroke-linecap="round" stroke-linejoin="round" stroke-width="2.11705"/>
              <path d="M577.23874,334.75488a59.46782,59.46782,0,0,1,4.32266-9.98785" fill="none" stroke="#000" stroke-linecap="round" stroke-linejoin="round" stroke-width="2.11705"/>
              <line x1="566.01837" y1="327.51515" x2="569.38608" y2="320.57256" fill="none" stroke="#000" stroke-linecap="round" stroke-linejoin="round" stroke-width="2.11705"/>
              <path d="M577.373,334.615l2.21271,1.15684s-.31221,7.447-3.11034,10.24963l-25.54843-4.447s-14.41667-3.25219-16.11371-8.07265l2.1874-1.74a19.47545,19.47545,0,0,0,11.15082.86646c6.662-1.26078,14.69557-5.465,14.69557-5.465l5.83463,2.96514s-1.16828,4.11471.67213,6.14563c1.18945,1.31258,5.92431,1.99087,7.06169-.5787" fill="none" stroke="#000" stroke-linecap="round" stroke-linejoin="round" stroke-width="2.11705"/>
            </g>
            <g>
              <path d="M700.04539,337.28845s1.89044.24495,2.92536.30793c2.765.16826,3.79186-1.84453,5.581-2.945a7.375,7.375,0,0,1,1.73244-.82721c1.07776-.30793,3.74307-.89363,5.61977-.077" fill="none" stroke="#000" stroke-linecap="round" stroke-linejoin="round" stroke-width="2.02254"/>
              <path d="M709.43734,333.8242a34.21817,34.21817,0,0,0,4.08011-7.7753c.60208-1.94627,1.48729-8.01222,1.48729-8.01222" fill="none" stroke="#000" stroke-linecap="round" stroke-linejoin="round" stroke-width="2.02254"/>
              <path d="M696.70945,339.67493l-.26248,4.38063,3.855.64893a34.44435,34.44435,0,0,0,9.75121-.82115c4.9972-1.27646,24.78859-23.30025,24.78859-23.30025s.75466-1.84955-2.61743-4.15709" fill="none" stroke="#000" stroke-linecap="round" stroke-linejoin="round" stroke-width="2.02254"/>
              <path d="M722.48741,311.099a56.813,56.813,0,0,1-5.82378-8.61318" fill="none" stroke="#000" stroke-linecap="round" stroke-linejoin="round" stroke-width="2.02254"/>
              <line x1="710.89144" y1="316.41674" x2="707.02982" y2="310.13729" fill="none" stroke="#000" stroke-linecap="round" stroke-linejoin="round" stroke-width="2.02254"/>
              <path d="M721.9856,310.80623l1.82194-.69285s7.16762,3.21317,7.98742,6.90686c0,0-13.56943,15.34068-18.66339,19.44788-3.79687,4.74647-9.05141,5.64581-16.16551,3.89965l.08436-1.39142a18.60609,18.60609,0,0,0,8.23411-6.80965c3.73845-5.28988,3.84488-13.22591,3.84488-13.22591l.10264-1.53967,6.287.10265c.56324.45047,3.99817,1.63754,5.46581.30793,1.25413-1.13626,2.717-4.53824,1.23173-6.77452" fill="none" stroke="#000" stroke-linecap="round" stroke-linejoin="round" stroke-width="2.02254"/>
            </g>
          </g>
          <polyline points="635.467 163.771 651.35 167.622 668.157 161.116" fill="none" stroke="#000" stroke-linecap="round" stroke-linejoin="round" stroke-width="2.11705"/>
          <line x1="646.77797" y1="160.88333" x2="668.19596" y2="162.96897" fill="none" stroke="#000" stroke-linecap="round" stroke-linejoin="round" stroke-width="2.11705"/>
          <path d="M564.54993,121.59455l2.5731.86218c1.01731,1.049,1.06723,2.47617.08683,3.0234a15.771,15.771,0,0,1-1.994,1.06468" fill="none" stroke="#000" stroke-linecap="round" stroke-linejoin="round" stroke-width="2.11705"/>
          <path d="M566.69693,125.82083l2.8934.62172c1.13871.94893,1.3391,1.76952-.14347,2.96514l-3.18918,2.48953" fill="none" stroke="#000" stroke-linecap="round" stroke-linejoin="round" stroke-width="2.11705"/>
          <path d="M568.39471,130.50766l2.91732,1.43475c1.24582,1.12717-4.01729,3.96946-4.01729,3.96946" fill="none" stroke="#000" stroke-linecap="round" stroke-linejoin="round" stroke-width="2.11705"/>
          <path d="M567.34257,136.48577h3.87381c1.266.99558-1.76952,3.39556-3.3809,3.29313l.08022.4813" fill="none" stroke="#000" stroke-linecap="round" stroke-linejoin="round" stroke-width="2.11705"/>
          <path d="M581.47849,129.73137l-1.74265,11.57615c-4.35661,3.98319-12.323.9958-12.323.9958l-3.64745-24.60866" fill="none" stroke="#000" stroke-linecap="round" stroke-linejoin="round" stroke-width="2.11705"/>
          <path d="M573.72722,114.56984s1.68456-12.51389-9.14475-12.51389-30.49821,0-27.851-21.89929c2.53095-20.93783,64.90112-47.1553,68.44519-76.75946.29184-2.43778-3.2344-3.30411-3.98628-.96689-.50883,1.58167.50412,3.77378,5.60771,6.60227" fill="none" stroke="#000" stroke-linecap="round" stroke-linejoin="round" stroke-width="2.11705"/>
          <path d="M582.51345,116.74539c-2.94122,3.15644-15.3861,2.8343-18.60861.41226" fill="none" stroke="#000" stroke-linecap="round" stroke-linejoin="round" stroke-width="2.11705"/>
          <path d="M563.397,117.14062s-.524-4.28334,9.57236-4.95643c9.62607-.64174,9.94694,4.17129,9.94694,4.17129" fill="none" stroke="#000" stroke-linecap="round" stroke-linejoin="round" stroke-width="2.11705"/>
          <line x1="582.57278" y1="116.21142" x2="581.85191" y2="123.75658" fill="none" stroke="#000" stroke-linecap="round" stroke-linejoin="round" stroke-width="2.11705"/>
          <path d="M659.52291,89.15725s-7.79718,5.15363-6.70421,18.45142c1.06793,12.99312,10.14531,60.15993,10.14531,60.15993l8.06879-3.14445s-7.45237-40.38621-8.78074-54.70163c-.42469-4.57674-2.0172-14.00172,5.577-18.51075Z" fill="#1e1e1e"/>
          <line x1="673.82128" y1="135.90876" x2="673.4653" y2="152.46164" fill="none" stroke="#000" stroke-linecap="round" stroke-linejoin="round" stroke-width="2.11705"/>
        </g>
      </g>
    </g>
  </g>
</svg>
